<svg xmlns="http://www.w3.org/2000/svg" viewBox="0 0 32 32" x="0px" y="0px"><defs><style>
      .cls-1 {
        stroke-width: 0px;
      }
    </style></defs><rect class="cls-1" x="7.5" y="28.5" width="17" height="2"/><path class="cls-1" d="m28.5,12.5v17.5c0,.2799683-.2199707.5-.5.5h-2.5v-2.5c0-.2800293-.2199707-.5-.5-.5h-6.3599854l.5299683-2.1400146c.1199951-.4500122.0200195-.9199829-.2699585-1.2800293-.1500244-.1899414-.3400269-.3399658-.5500488-.4399414.0900269-.1900024.1500244-.4100342.1500244-.6400146,0-.5900269-.3400269-1.0900269-.8300171-1.3400269.210022-.2999878.3300171-.6699829.3300171-1.0700073,0-.5100098-.2000122-1-.5599976-1.3599854l-.5900269-.5800171c-.1900024-.1999512-.5099487-.1999512-.6999512,0l-.8699951.8699951c-.7300415.1000366-1.2800293.7300415-1.2800293,1.4800415,0,.2699585.0800171.5199585.2000122.7399902-.4199829.2600098-.7000122.7299805-.7000122,1.2600098,0,.2299805.0599976.4500122.1500244.6400146-.210022.0999756-.4000244.25-.5500488.4399414-.289978.3600464-.3899536.8300171-.2699585,1.2800293l.5299683,2.1400146h-6.3599854c-.2800293,0-.5.2199707-.5.5v2.5h-2.5c-.2800293,0-.5-.2200317-.5-.5V12.5h3v1.5c0,.2799683.2199707.5.5.5h1.5v1.5c0,.2799683.2199707.5.5.5h2c.2800293,0,.5-.2200317.5-.5v-1.5h3v1.5c0,.2799683.2199707.5.5.5h2c.2800293,0,.5-.2200317.5-.5v-1.5h3v1.5c0,.2799683.2199707.5.5.5h2c.2800293,0,.5-.2200317.5-.5v-1.5h1.5c.2800293,0,.5-.2200317.5-.5v-1.5h3Z"/><path class="cls-1" d="m28.5,2v9.5h-3v-3.5c0-.2800293-.2199707-.5-.5-.5h-.8499756l.3499756-2.4299927c.0200195-.1400146-.0300293-.2900391-.1199951-.4000244-.0999756-.1099854-.2399902-.1699829-.3800049-.1699829h-4c-.1400146,0-.2800293.0599976-.3800049.1699829-.0899658.1099854-.1400146.2600098-.1199951.4000244l.3499756,2.4299927h-1.6999512l.3499756-2.4299927c.0200195-.1400146-.0300293-.2900391-.1199951-.4000244-.0999756-.1099854-.2399902-.1699829-.3800049-.1699829h-4c-.1400146,0-.2800293.0599976-.3800049.1699829-.0899658.1099854-.1400146.2600098-.1199951.4000244l.3499756,2.4299927h-1.6999512l.3499756-2.4299927c.0200195-.1400146-.0300293-.2900391-.1199951-.4000244-.0999756-.1099854-.2399902-.1699829-.3800049-.1699829h-4c-.1400146,0-.2800293.0599976-.3800049.1699829-.0899658.1099854-.1400146.2600098-.1199951.4000244l.3499756,2.4299927h-.8499756c-.2800293,0-.5.2199707-.5.5v3.5h-3V2c0-.2800293.2199707-.5.5-.5h24c.2800293,0,.5.2199707.5.5Z"/><rect class="cls-1" x="21.5" y="14.5" width="1" height="1"/><rect class="cls-1" x="15.5" y="14.5" width="1" height="1"/><rect class="cls-1" x="9.5" y="14.5" width="1" height="1"/><polygon class="cls-1" points="11.4199829 5.5 10.5700073 11.5 9.4299927 11.5 8.5800171 5.5 11.4199829 5.5"/><polygon class="cls-1" points="17.4199829 5.5 16.5700073 11.5 15.4299927 11.5 14.5800171 5.5 17.4199829 5.5"/><path class="cls-1" d="m24.5,8.5v5H7.5v-5h.4899902l.5100098,3.5700073c.039978.25.25.4299927.5.4299927h2c.25,0,.460022-.1799927.5-.4299927l.5100098-3.5700073h1.9799805l.5100098,3.5700073c.039978.25.25.4299927.5.4299927h2c.25,0,.460022-.1799927.5-.4299927l.5100098-3.5700073h1.9799805l.5100098,3.5700073c.039978.25.25.4299927.5.4299927h2c.25,0,.460022-.1799927.5-.4299927l.5100098-3.5700073h.4899902Z"/><polygon class="cls-1" points="23.4199829 5.5 22.5700073 11.5 21.4299927 11.5 20.5800171 5.5 23.4199829 5.5"/><path class="cls-1" d="m17,20.5899658c0,.5-.4099731.9100342-.9099731.9100342h-.5900269c-.2800293,0-.5-.2200317-.5-.5,0-.2800293.2199707-.5.5-.5.1300049,0,.2600098-.0499878.3499756-.1500244l.6500244-.6400146.2299805.2300415c.1700439.1699829.2700195.3999634.2700195.6499634Z"/><path class="cls-1" d="m17.5,23c0,.2799683-.2199707.5-.5.5h-2c-.2800293,0-.5-.2200317-.5-.5,0-.2800293.2199707-.5.5-.5h2c.2800293,0,.5.2199707.5.5Z"/><path class="cls-1" d="m18.2000122,25.1199951l-.5900269,2.3800049h-3.2199707l-.5900269-2.3800049c-.039978-.1500244-.0100098-.3099976.0900269-.4299927.0899658-.1199951.2399902-.1900024.3900146-.1900024h3.4399414c.1500244,0,.3000488.0700073.3900146.1900024.1000366.1199951.1300049.2799683.0900269.4299927Z"/></svg>