<svg xmlns="http://www.w3.org/2000/svg" version="1.1" viewBox="-5 -10 110 115">
 <path d="m40.973 51.621v-3.2422c0-0.82812 0.67188-1.5 1.5-1.5s1.5 0.67188 1.5 1.5v3.2422c0 0.82812-0.67188 1.5-1.5 1.5s-1.5-0.67188-1.5-1.5zm0 7.3047c0 0.82812 0.67188 1.5 1.5 1.5s1.5-0.67188 1.5-1.5v-3.2422c0-0.82812-0.67188-1.5-1.5-1.5s-1.5 0.67188-1.5 1.5zm8.4492-5.8047c0.82812 0 1.5-0.67188 1.5-1.5v-3.2422c0-0.82812-0.67188-1.5-1.5-1.5s-1.5 0.67188-1.5 1.5v3.2422c0 0.82812 0.67188 1.5 1.5 1.5zm-1.5 5.8047c0 0.82812 0.67188 1.5 1.5 1.5s1.5-0.67188 1.5-1.5v-3.2422c0-0.82812-0.67188-1.5-1.5-1.5s-1.5 0.67188-1.5 1.5zm44.527-26.953h-27.059c-0.48047 0-0.87109 0.39062-0.87109 0.87109v0.85547h-5.7773v-4.1523h-25.473v7.2266c0 2.2539 2.3555 4.0781 5.2617 4.0781h2.4648c-0.011719 0.074219-0.023438 0.14844-0.023438 0.22266v3.2422c0 0.82812 0.67188 1.5 1.5 1.5s1.5-0.67188 1.5-1.5v-3.2422c0-0.078125-0.011718-0.15234-0.023437-0.22266h3.9922c-0.011718 0.074219-0.023437 0.14844-0.023437 0.22266v3.2422c0 0.82812 0.67188 1.5 1.5 1.5s1.5-0.67188 1.5-1.5v-3.2422c0-0.078125-0.011719-0.15234-0.023438-0.22266h2.582c2.9062 0 5.2617-1.8242 5.2617-4.0781v-0.074219h5.7773v0.85547c0 0.48047 0.39062 0.87109 0.87109 0.87109h27.059c1.4102 0 2.5508-1.1406 2.5508-2.5508v-1.3516c0-1.4102-1.1406-2.5508-2.5508-2.5508zm-4.6992 54.641v3.125c0 2.9062-2.3555 5.2617-5.2617 5.2617h-72.227c-2.9062 0-5.2617-2.3555-5.2617-5.2617v-79.477c0-2.9062 2.3555-5.2617 5.2617-5.2617h72.227c2.9062 0 5.2617 2.3555 5.2617 5.2617v11.598c0 2.9062-2.3555 5.2617-5.2617 5.2617h-57.332v54.227h17.945c-5.5859 0-10.113-4.5273-10.113-10.113v-4.7109c0-0.98438 0.79688-1.7812 1.7812-1.7812h22.199c0.98438 0 1.7812 0.79687 1.7812 1.7812v1.3438h1.043c2.8555 0 5.1797 2.3242 5.1797 5.1797s-2.3242 5.1797-5.1797 5.1797h-3.8594c-1.8398 1.9219-4.4258 3.1211-7.2969 3.1211h33.855c2.9062 0 5.2617 2.3555 5.2617 5.2617zm-29.004-15.746v0.36719c0 1.418-0.29297 2.7656-0.82031 3.9922h1.8633c1.2031 0 2.1797-0.97656 2.1797-2.1797s-0.97656-2.1797-2.1797-2.1797zm12.449-54.805c0 2.5156 2.0391 4.5508 4.5508 4.5508 2.5156 0 4.5508-2.0391 4.5508-4.5508 0-2.5156-2.0391-4.5508-4.5508-4.5508-2.5156 0-4.5508 2.0391-4.5508 4.5508zm-13.125 0c0 2.5156 2.0391 4.5508 4.5508 4.5508 2.5156 0 4.5508-2.0391 4.5508-4.5508 0-2.5156-2.0391-4.5508-4.5508-4.5508-2.5156 0-4.5508 2.0391-4.5508 4.5508zm-41.34 26.816c0-0.82812-0.67188-1.5-1.5-1.5h-4.6094c-0.82812 0-1.5 0.67188-1.5 1.5s0.67188 1.5 1.5 1.5h4.6094c0.82812 0 1.5-0.67188 1.5-1.5zm0-6.8594c0-0.82812-0.67188-1.5-1.5-1.5h-4.6094c-0.82812 0-1.5 0.67188-1.5 1.5s0.67188 1.5 1.5 1.5h4.6094c0.82812 0 1.5-0.67188 1.5-1.5zm0-6.8594c0-0.82812-0.67188-1.5-1.5-1.5h-4.6094c-0.82812 0-1.5 0.67188-1.5 1.5s0.67188 1.5 1.5 1.5h4.6094c0.82812 0 1.5-0.67188 1.5-1.5zm0-6.8633c0-0.82812-0.67188-1.5-1.5-1.5h-4.6094c-0.82812 0-1.5 0.67188-1.5 1.5s0.67188 1.5 1.5 1.5h4.6094c0.82812 0 1.5-0.67188 1.5-1.5zm0-6.8594c0-0.82812-0.67188-1.5-1.5-1.5h-4.6094c-0.82812 0-1.5 0.67188-1.5 1.5s0.67188 1.5 1.5 1.5h4.6094c0.82812 0 1.5-0.67188 1.5-1.5z"/>
</svg>