<svg xmlns="http://www.w3.org/2000/svg" version="1.1" viewBox="-5 -10 110 115">
 <path d="m73.008 2.082h-46.016c-0.82813 0-1.5 0.67188-1.5 1.5v89.68c0 0.82812 0.67187 1.5 1.5 1.5h2.7109v1.9062c0 0.82812 0.67188 1.5 1.5 1.5h6.5c0.82812 0 1.5-0.67188 1.5-1.5v-1.9062h21.602v1.9062c0 0.82812 0.67187 1.5 1.5 1.5h6.5c0.82812 0 1.5-0.67188 1.5-1.5v-1.9062h2.7109c0.82812 0 1.5-0.67188 1.5-1.5l-0.007813-89.68c0-0.82812-0.67187-1.5-1.5-1.5zm-1.5 47.09h-19.523v-3.8906h0.5625v-36.816h-0.5625v-3.3828h19.523zm0 3v9.7148h-43.016v-9.7148zm-22.523-47.09v3.3828h-0.48438v36.812h0.48438v3.8906l-20.492 0.003906v-44.09zm-12.785 90.086h-3.5v-0.40625h3.5zm31.102 0h-3.5v-0.40625h3.5zm-38.809-3.4062v-26.875h43.016v26.875z"/>
 <path d="m34.457 53.469h32.453v3h-32.453z"/>
 <path d="m34.348 66.184h32.453v3h-32.453z"/>
 <path d="m70.109 9.6289h-16.684v35.211h16.684zm-3 32.215h-10.684v-29.215h10.684z"/>
 <path d="m44.477 27.836h-14.949v17.531h14.949zm-8.1562 3h0.875v4.9102h-0.875zm5.1562 11.531h-8.9492v-11.531h0.79297v6.4102c0 0.82812 0.67188 1.5 1.5 1.5h3.875c0.82813 0 1.5-0.67188 1.5-1.5v-6.4102h1.2812z"/>
 <path d="m57.832 14.398h3.0273v3.0273h-3.0273z"/>
 <path d="m62.676 14.398h3.0273v3.0273h-3.0273z"/>
 <path d="m57.832 18.883h3.0273v3.0273h-3.0273z"/>
 <path d="m62.676 18.883h3.0273v3.0273h-3.0273z"/>
 <path d="m57.832 23.402h3.0273v3.0273h-3.0273z"/>
 <path d="m62.676 23.402h3.0273v3.0273h-3.0273z"/>
 <path d="m57.832 27.922h3.0273v3.0273h-3.0273z"/>
 <path d="m62.676 27.922h3.0273v3.0273h-3.0273z"/>
 <path d="m57.832 32.402h3.0273v3.0273h-3.0273z"/>
 <path d="m62.676 32.402h3.0273v3.0273h-3.0273z"/>
 <path d="m57.832 36.926h3.0273v3.0273h-3.0273z"/>
 <path d="m62.676 36.926h3.0273v3.0273h-3.0273z"/>
</svg>