<svg xmlns="http://www.w3.org/2000/svg" viewBox="0 0 512 500" x="0px" y="0px"><path d="M126.536,107.856c-1.932,.074-3.437,1.701-3.361,3.633l.797,20.577c.072,1.885,1.624,3.364,3.495,3.364,.045,0,.091,0,.138-.003,1.932-.074,3.437-1.701,3.361-3.633l-.797-20.577c-.072-1.885-1.624-3.364-3.495-3.364-.045,0-.091,0-.138,.003Z"/><path d="M128.388,152.118c-.045,0-.091,0-.138,.003-1.932,.074-3.437,1.701-3.361,3.633l3.404,87.946c.072,1.885,1.624,3.364,3.495,3.364,.045,0,.091,0,.138-.003,1.932-.074,3.437-1.701,3.361-3.633l-3.404-87.946c-.072-1.885-1.624-3.364-3.495-3.364Z"/><path d="M413.794,233.885c3.819,0,6.927-3.107,6.927-6.927s-3.107-6.927-6.927-6.927-6.926,3.107-6.926,6.927,3.106,6.927,6.926,6.927Z"/><path d="M203.963,22.604v9.573h35.18v-9.573c-11.426-4.158-23.754-4.158-35.18,0Z"/><path d="M293.538,57.455H128.499c2.924,12.818,9.728,24.688,19.349,33.667,.675,.63,1.074,1.501,1.109,2.423l.632,16.34c34.577-.229,52.729-3.719,70.299-7.099,17.986-3.459,36.571-7.032,72.174-7.228l1.475-38.103Z"/><path d="M97.123,412.86c-.968,1.28-.574,2.572-.359,3.069,.219,.509,.907,1.711,2.552,1.89,6.023,.657,12.032,.152,17.862-1.497l16.425-4.644c10.97-3.103,22.461,1.711,27.95,11.701,3.682,6.702,3.99,14.677,.902,21.609,14.918-8.548,25.617-20.876,23.325-33.938-4.493-7.335-14.434-17.759-35.081-19.478-21.081-1.756-42.615,6.799-53.576,21.287Z"/><path d="M128.174,50.455h165.065c-1.578-6.461-7.401-11.277-14.341-11.277H142.517c-6.941,0-12.764,4.816-14.342,11.277Z"/><path d="M221.211,109.66c-17.847,3.432-36.284,6.976-71.351,7.223l5.203,134.404c.371,9.588,8.178,17.098,17.772,17.098h33.959v-125.203c0-8.138,6.62-14.758,14.758-14.758s14.758,6.62,14.758,14.758v125.203h31.952c9.595,0,17.401-7.51,17.772-17.098l5.757-148.728c-34.762,.212-52.963,3.713-70.581,7.101Z"/><path d="M361.997,230.434c0,.605-.157,1.2-.456,1.727l-7.346,12.948h119.197l-7.345-12.948c-.299-.526-.456-1.121-.456-1.727v-21.131h-103.595v21.131Zm51.797-17.402c7.68,0,13.927,6.247,13.927,13.927s-6.247,13.927-13.927,13.927-13.926-6.247-13.926-13.927,6.247-13.927,13.926-13.927Z"/><rect x="361.997" y="187.89" width="103.595" height="14.413"/><path d="M320.393,207.961c-1.486,10.384-10.518,18.214-21.007,18.214h-5.374l-.382,9.872h8.084c14.042,0,26.132-10.483,28.121-24.385l13.975-97.668c1.167-8.157-1.26-16.407-6.658-22.633-5.398-6.227-13.222-9.798-21.463-9.798h-16.079l-.382,9.872h13.366c6.156,0,12,2.668,16.032,7.318,4.033,4.651,5.847,10.813,4.975,16.907l-13.207,92.3Z"/><path d="M221.553,135.424c-4.277,0-7.758,3.48-7.758,7.758v125.203h15.516v-125.203c0-4.277-3.48-7.758-7.758-7.758Z"/><rect x="154.05" y="275.385" width="135.006" height="16.398"/><path d="M139.614,298.783l-9.937,87.215c7.015-1.487,14.337-2.004,21.603-1.402,5.708,.475,11.069,1.647,15.994,3.432v-71.066c0-1.933,1.567-3.5,3.5-3.5h101.556c1.933,0,3.5,1.567,3.5,3.5v116.542c0,1.933-1.567,3.5-3.5,3.5h-27.632c-.51,1.441-1.357,2.758-2.502,3.81l-3.005,2.763,1.685,1.884c1.205,1.348,1.186,3.392-.046,4.716-9.537,10.262-20.911,19.289-33.318,26.722h116.273l-20.293-178.116H139.614Zm114.712,163.436c-4.941,0-8.962-4.021-8.962-8.962s4.021-8.963,8.962-8.963,8.963,4.021,8.963,8.963-4.021,8.962-8.963,8.962Z"/><path d="M254.326,451.294c-1.082,0-1.962,.881-1.962,1.963s.88,1.962,1.962,1.962,1.963-.88,1.963-1.962-.881-1.963-1.963-1.963Z"/><path d="M416.16,442.707c10.845-15.543,14.331-34.977,9.566-53.32-4.765-18.343-17.268-33.623-34.306-41.923-17.037-8.3-36.777-8.729-54.157-1.174l-20.309,8.827,6.518,57.215,.419-.109,6.748-8.529c6.437-8.135,8.722-18.985,6.113-29.024-.486-1.871,.637-3.781,2.508-4.268,1.873-.484,3.782,.637,4.268,2.508,3.156,12.15,.391,25.282-7.398,35.128l-1.003,1.267,20.193-5.245,5.406-6.832c5.158-6.52,6.989-15.215,4.899-23.261-.486-1.871,.637-3.781,2.508-4.268,1.869-.483,3.781,.638,4.268,2.508,2.593,9.985,.393,20.758-5.869,28.94l20.493-5.323c1.869-.486,3.781,.637,4.268,2.508s-.637,3.781-2.508,4.268l-20.493,5.323c9.452,4.1,16.616,12.439,19.21,22.425,.486,1.871-.637,3.781-2.508,4.268-.295,.076-.591,.113-.882,.113-1.557,0-2.977-1.045-3.386-2.621-2.09-8.046-7.922-14.751-15.6-17.937l-8.046-3.336-20.193,5.245,1.492,.619c11.596,4.811,20.403,14.937,23.559,27.087,.485,1.871-.637,3.781-2.508,4.268-.295,.076-.591,.113-.882,.113-1.557,0-2.977-1.045-3.386-2.621-2.607-10.039-9.884-18.406-19.465-22.381l-10.047-4.166-1.378,.358,1.856,16.295c6.58,6.317,11.259,14.286,13.558,23.137,.485,1.871-.637,3.781-2.508,4.268-.295,.076-.591,.113-.882,.113-1.557,0-2.977-1.045-3.386-2.621-1.128-4.344-2.944-8.427-5.331-12.152l2.909,25.53,38.929-3.838c18.86-1.858,35.897-11.839,46.741-27.381Z"/><path d="M351.687,281.322c9.644,.631,15.184,3.816,20.119,6.669,5.205,3.008,10.122,5.85,20.118,5.85s14.912-2.842,20.118-5.85c5.506-3.183,11.747-6.789,23.621-6.789s18.114,3.606,23.62,6.789c4.559,2.634,8.896,5.141,16.618,5.723v-41.604h-124.215v29.213Z"/><path d="M215.289,427.348c-17.697,16.686-41.089,27.578-69.592,32.397-10.035,2.097-19.981,3.126-29.605,3.126-24.372,0-46.683-6.597-63.318-19.049l-.619,1.808c1.439,.957,2.756,2.11,3.881,3.464l18.589,22.382c13.302,13.934,33.247,21.249,56.695,21.035,36.052-.259,75.797-17.754,102.184-44.792l-18.215-20.371Z"/><path d="M435.663,288.202c-9.996,0-14.913,2.842-20.119,5.85-5.506,3.183-11.747,6.789-23.62,6.789s-18.114-3.606-23.62-6.789c-4.559-2.634-8.896-5.141-16.617-5.723v46.522c14.438-2.326,29.375-.222,42.801,6.319,18.879,9.197,32.735,26.13,38.015,46.456,5.28,20.326,1.416,41.862-10.601,59.085-4.457,6.388-9.862,11.922-15.959,16.47h65.864c2.259,0,4.096-1.837,4.096-4.096v-158.365c-9.645-.631-15.185-3.816-20.12-6.669-5.206-3.008-10.122-5.85-20.118-5.85Z"/><path d="M244.425,430.005h24.405v-109.542h-94.556v70.686c7.138,3.826,13.013,9.155,17.171,15.752l5.289-2.749c-10.629-9.115-15.525-23.501-12.309-37.468,2.283-9.917,8.292-18.352,16.919-23.749,8.626-5.396,18.84-7.112,28.757-4.829,9.917,2.284,18.352,8.293,23.749,16.92s7.112,18.84,4.829,28.756c-3.592,15.602-16.489,26.982-31.741,29.169l15.238,13.932c.965,.882,1.725,1.949,2.249,3.122Z"/><path d="M176.794,443.759c14.092-5.854,26.195-13.853,36.182-23.932,.678-.685,1.585-1.073,2.576-1.035,.965,.024,1.876,.447,2.52,1.166l16.453,18.401,2.934-2.698c1.125-1.394,1.125-2.22-.004-3.612l-26.273-24.021c-1.458-1.333-3.613-1.618-5.369-.705l-12.732,6.618c.221,10.568-5.729,21.081-16.285,29.817Z"/><path d="M42.292,421.389c-1.97,.454-3.529,2.021-3.974,3.992l-2.091,9.271c-.415,1.84,.19,3.777,1.578,5.056l1.64,1.509c.929,.855,2.135,1.352,3.396,1.396,.958,.034,1.898,.169,2.827,.352l4.948-14.447-2.504-4.532c-1.137-2.057-3.529-3.123-5.82-2.597Z"/><path d="M135.507,418.415l-9.84,2.782-1.189,10.443c10.598-1.785,20.468-4.142,29.523-7.052-4.263-5.62-11.524-8.145-18.494-6.174Z"/><path d="M215.904,402.862l3.729,3.409c15.058,.942,28.808-9.213,32.225-24.059,1.864-8.095,.465-16.431-3.941-23.473-4.405-7.042-11.29-11.947-19.385-13.811-8.091-1.866-16.431-.465-23.474,3.941-7.042,4.405-11.946,11.29-13.81,19.385-2.85,12.377,2.112,25.144,12.383,32.384,4.138-1.656,8.94-.822,12.273,2.224Zm-1.957-46.661c1.791-.717,3.832,.155,4.549,1.951l12.612,31.564c.718,1.795-.156,3.832-1.951,4.549-.426,.17-.865,.251-1.298,.251-1.39,0-2.704-.833-3.251-2.202l-12.612-31.564c-.718-1.795,.156-3.832,1.951-4.549Z"/><path d="M56.458,433.067l-1.293,3.775c21.562,17.232,54.596,23.239,89.003,16.071,1.208-.376,2.411-.781,3.607-1.207,2.966-1.429,5.417-3.817,6.96-6.882l.867-1.726c1.969-3.806,2.443-8.108,1.452-12.136-15.618,5.11-33.558,8.605-53.395,10.396-16.165,1.452-32.396-1.411-47.202-8.291Z"/></svg>